<svg xmlns="http://www.w3.org/2000/svg" width="1930" height="177" viewBox="0 0 482.6 44.45"><rect x="0" y="0" width="482.6" height="44.45" rx="1.5" fill="#1f2329"/><rect x="0.6" y="0.6" width="481.4" height="43.25" rx="1.2" fill="none" stroke="#4b5160" stroke-width="0.8"/><rect x="0" y="0" width="16" height="44.45" fill="#3a3f48"/><circle cx="8" cy="22.225" r="2.2" fill="#15171b"/><rect x="466.6" y="0" width="16" height="44.45" fill="#3a3f48"/><circle cx="474.6" cy="22.225" r="2.2" fill="#15171b"/><rect x="40" y="7" width="11" height="9" rx="0.8" fill="#0d0f12" stroke="#7b8494" stroke-width="0.5"/><rect x="43" y="13.5" width="5" height="2" fill="#2a2e35"/><rect x="40.8" y="7.6" width="2" height="1.2" fill="#22c55e"/><rect x="40" y="24" width="11" height="9" rx="0.8" fill="#0d0f12" stroke="#7b8494" stroke-width="0.5"/><rect x="43" y="30.5" width="5" height="2" fill="#2a2e35"/><rect x="40.8" y="24.6" width="2" height="1.2" fill="#22c55e"/><rect x="53" y="7" width="11" height="9" rx="0.8" fill="#0d0f12" stroke="#7b8494" stroke-width="0.5"/><rect x="56" y="13.5" width="5" height="2" fill="#2a2e35"/><rect x="53.8" y="7.6" width="2" height="1.2" fill="#22c55e"/><rect x="53" y="24" width="11" height="9" rx="0.8" fill="#0d0f12" stroke="#7b8494" stroke-width="0.5"/><rect x="56" y="30.5" width="5" height="2" fill="#2a2e35"/><rect x="66" y="7" width="11" height="9" rx="0.8" fill="#0d0f12" stroke="#7b8494" stroke-width="0.5"/><rect x="69" y="13.5" width="5" height="2" fill="#2a2e35"/><rect x="66" y="24" width="11" height="9" rx="0.8" fill="#0d0f12" stroke="#7b8494" stroke-width="0.5"/><rect x="69" y="30.5" width="5" height="2" fill="#2a2e35"/><rect x="66.8" y="24.6" width="2" height="1.2" fill="#22c55e"/><rect x="79" y="7" width="11" height="9" rx="0.8" fill="#0d0f12" stroke="#7b8494" stroke-width="0.5"/><rect x="82" y="13.5" width="5" height="2" fill="#2a2e35"/><rect x="79.8" y="7.6" width="2" height="1.2" fill="#22c55e"/><rect x="79" y="24" width="11" height="9" rx="0.8" fill="#0d0f12" stroke="#7b8494" stroke-width="0.5"/><rect x="82" y="30.5" width="5" height="2" fill="#2a2e35"/><rect x="79.8" y="24.6" width="2" height="1.2" fill="#22c55e"/><rect x="92" y="7" width="11" height="9" rx="0.8" fill="#0d0f12" stroke="#7b8494" stroke-width="0.5"/><rect x="95" y="13.5" width="5" height="2" fill="#2a2e35"/><rect x="92.8" y="7.6" width="2" height="1.2" fill="#22c55e"/><rect x="92" y="24" width="11" height="9" rx="0.8" fill="#0d0f12" stroke="#7b8494" stroke-width="0.5"/><rect x="95" y="30.5" width="5" height="2" fill="#2a2e35"/><rect x="92.8" y="24.6" width="2" height="1.2" fill="#22c55e"/><rect x="105" y="7" width="11" height="9" rx="0.8" fill="#0d0f12" stroke="#7b8494" stroke-width="0.5"/><rect x="108" y="13.5" width="5" height="2" fill="#2a2e35"/><rect x="105" y="24" width="11" height="9" rx="0.8" fill="#0d0f12" stroke="#7b8494" stroke-width="0.5"/><rect x="108" y="30.5" width="5" height="2" fill="#2a2e35"/><rect x="121" y="7" width="11" height="9" rx="0.8" fill="#0d0f12" stroke="#7b8494" stroke-width="0.5"/><rect x="124" y="13.5" width="5" height="2" fill="#2a2e35"/><rect x="121.8" y="7.6" width="2" height="1.2" fill="#22c55e"/><rect x="121" y="24" width="11" height="9" rx="0.8" fill="#0d0f12" stroke="#7b8494" stroke-width="0.5"/><rect x="124" y="30.5" width="5" height="2" fill="#2a2e35"/><rect x="121.8" y="24.6" width="2" height="1.2" fill="#22c55e"/><rect x="134" y="7" width="11" height="9" rx="0.8" fill="#0d0f12" stroke="#7b8494" stroke-width="0.5"/><rect x="137" y="13.5" width="5" height="2" fill="#2a2e35"/><rect x="134.8" y="7.6" width="2" height="1.2" fill="#22c55e"/><rect x="134" y="24" width="11" height="9" rx="0.8" fill="#0d0f12" stroke="#7b8494" stroke-width="0.5"/><rect x="137" y="30.5" width="5" height="2" fill="#2a2e35"/><rect x="134.8" y="24.6" width="2" height="1.2" fill="#22c55e"/><rect x="147" y="7" width="11" height="9" rx="0.8" fill="#0d0f12" stroke="#7b8494" stroke-width="0.5"/><rect x="150" y="13.5" width="5" height="2" fill="#2a2e35"/><rect x="147" y="24" width="11" height="9" rx="0.8" fill="#0d0f12" stroke="#7b8494" stroke-width="0.5"/><rect x="150" y="30.5" width="5" height="2" fill="#2a2e35"/><rect x="147.8" y="24.6" width="2" height="1.2" fill="#22c55e"/><rect x="160" y="7" width="11" height="9" rx="0.8" fill="#0d0f12" stroke="#7b8494" stroke-width="0.5"/><rect x="163" y="13.5" width="5" height="2" fill="#2a2e35"/><rect x="160.8" y="7.6" width="2" height="1.2" fill="#22c55e"/><rect x="160" y="24" width="11" height="9" rx="0.8" fill="#0d0f12" stroke="#7b8494" stroke-width="0.5"/><rect x="163" y="30.5" width="5" height="2" fill="#2a2e35"/><rect x="173" y="7" width="11" height="9" rx="0.8" fill="#0d0f12" stroke="#7b8494" stroke-width="0.5"/><rect x="176" y="13.5" width="5" height="2" fill="#2a2e35"/><rect x="173.8" y="7.6" width="2" height="1.2" fill="#22c55e"/><rect x="173" y="24" width="11" height="9" rx="0.8" fill="#0d0f12" stroke="#7b8494" stroke-width="0.5"/><rect x="176" y="30.5" width="5" height="2" fill="#2a2e35"/><rect x="173.8" y="24.6" width="2" height="1.2" fill="#22c55e"/><rect x="186" y="7" width="11" height="9" rx="0.8" fill="#0d0f12" stroke="#7b8494" stroke-width="0.5"/><rect x="189" y="13.5" width="5" height="2" fill="#2a2e35"/><rect x="186" y="24" width="11" height="9" rx="0.8" fill="#0d0f12" stroke="#7b8494" stroke-width="0.5"/><rect x="189" y="30.5" width="5" height="2" fill="#2a2e35"/><rect x="186.8" y="24.6" width="2" height="1.2" fill="#22c55e"/><rect x="410" y="7" width="13" height="8.5" rx="0.6" fill="#101216" stroke="#a3acba" stroke-width="0.6"/><rect x="426" y="7" width="13" height="8.5" rx="0.6" fill="#101216" stroke="#a3acba" stroke-width="0.6"/><rect x="410" y="24" width="13" height="8.5" rx="0.6" fill="#101216" stroke="#a3acba" stroke-width="0.6"/><rect x="426" y="24" width="13" height="8.5" rx="0.6" fill="#101216" stroke="#a3acba" stroke-width="0.6"/><text x="22" y="40" font-family="sans-serif" font-size="3.5" fill="#d6dae2">DM-S24</text><circle cx="24" cy="8" r="1.3" fill="#22c55e"/><circle cx="24" cy="14" r="1.3" fill="#f59e0b"/></svg>
