<svg xmlns="http://www.w3.org/2000/svg" width="1930" height="177" viewBox="0 0 482.6 44.45"><rect x="0" y="0" width="482.6" height="44.45" rx="1.5" fill="#2b2f36"/><rect x="0.6" y="0.6" width="481.4" height="43.25" rx="1.2" fill="none" stroke="#4b5160" stroke-width="0.8"/><rect x="20" y="4" width="70" height="36.45" rx="1" fill="#3a3f48" stroke="#6b7280" stroke-width="0.6"/><line x1="26" y1="9" x2="26" y2="35.45" stroke="#14161a" stroke-width="1.2"/><line x1="30" y1="9" x2="30" y2="35.45" stroke="#14161a" stroke-width="1.2"/><line x1="34" y1="9" x2="34" y2="35.45" stroke="#14161a" stroke-width="1.2"/><line x1="38" y1="9" x2="38" y2="35.45" stroke="#14161a" stroke-width="1.2"/><line x1="42" y1="9" x2="42" y2="35.45" stroke="#14161a" stroke-width="1.2"/><line x1="46" y1="9" x2="46" y2="35.45" stroke="#14161a" stroke-width="1.2"/><line x1="50" y1="9" x2="50" y2="35.45" stroke="#14161a" stroke-width="1.2"/><line x1="54" y1="9" x2="54" y2="35.45" stroke="#14161a" stroke-width="1.2"/><line x1="58" y1="9" x2="58" y2="35.45" stroke="#14161a" stroke-width="1.2"/><line x1="62" y1="9" x2="62" y2="35.45" stroke="#14161a" stroke-width="1.2"/><rect x="70" y="17.225" width="14" height="10" rx="1" fill="#0d0f12"/><circle cx="66" cy="9" r="1.3" fill="#22c55e"/><rect x="392" y="4" width="70" height="36.45" rx="1" fill="#3a3f48" stroke="#6b7280" stroke-width="0.6"/><line x1="398" y1="9" x2="398" y2="35.45" stroke="#14161a" stroke-width="1.2"/><line x1="402" y1="9" x2="402" y2="35.45" stroke="#14161a" stroke-width="1.2"/><line x1="406" y1="9" x2="406" y2="35.45" stroke="#14161a" stroke-width="1.2"/><line x1="410" y1="9" x2="410" y2="35.45" stroke="#14161a" stroke-width="1.2"/><line x1="414" y1="9" x2="414" y2="35.45" stroke="#14161a" stroke-width="1.2"/><line x1="418" y1="9" x2="418" y2="35.45" stroke="#14161a" stroke-width="1.2"/><line x1="422" y1="9" x2="422" y2="35.45" stroke="#14161a" stroke-width="1.2"/><line x1="426" y1="9" x2="426" y2="35.45" stroke="#14161a" stroke-width="1.2"/><line x1="430" y1="9" x2="430" y2="35.45" stroke="#14161a" stroke-width="1.2"/><line x1="434" y1="9" x2="434" y2="35.45" stroke="#14161a" stroke-width="1.2"/><rect x="442" y="17.225" width="14" height="10" rx="1" fill="#0d0f12"/><circle cx="438" cy="9" r="1.3" fill="#22c55e"/><circle cx="200" cy="22.225" r="12" fill="#16181c" stroke="#6b7280" stroke-width="0.7"/><circle cx="200" cy="22.225" r="7.8" fill="none" stroke="#3b4250" stroke-width="0.7"/><circle cx="200" cy="22.225" r="3" fill="#3b4250"/><circle cx="230" cy="22.225" r="12" fill="#16181c" stroke="#6b7280" stroke-width="0.7"/><circle cx="230" cy="22.225" r="7.8" fill="none" stroke="#3b4250" stroke-width="0.7"/><circle cx="230" cy="22.225" r="3" fill="#3b4250"/><circle cx="260" cy="22.225" r="12" fill="#16181c" stroke="#6b7280" stroke-width="0.7"/><circle cx="260" cy="22.225" r="7.8" fill="none" stroke="#3b4250" stroke-width="0.7"/><circle cx="260" cy="22.225" r="3" fill="#3b4250"/><circle cx="290" cy="22.225" r="12" fill="#16181c" stroke="#6b7280" stroke-width="0.7"/><circle cx="290" cy="22.225" r="7.8" fill="none" stroke="#3b4250" stroke-width="0.7"/><circle cx="290" cy="22.225" r="3" fill="#3b4250"/><rect x="120" y="18.225" width="12" height="9" rx="1" fill="#1e3a8a"/></svg>
